<svg width="131" height="80" viewBox="0 0 131 80" fill="none" xmlns="http://www.w3.org/2000/svg">
<path d="M0 72.9922H5.96478V73.8806L5.46816 74.368H1.58623V75.7491H4.87114V77.0771H1.59025V78.5074H5.96478V79.8885H0V72.9922Z" fill="#F4EDE2"/>
<path d="M6.26172 79.1076L8.54804 76.445L6.46117 73.789V72.9922H7.95236L9.74073 75.4583H9.84112L11.6295 72.9922H13.118V73.789L11.0338 76.3959L13.3201 79.1076V79.8965H11.8289L9.84112 77.4304H9.74073L7.75291 79.8965H6.26172V79.1076Z" fill="#F4EDE2"/>
<path d="M13.9658 72.9922H18.8865C19.8811 72.9922 20.5263 73.6336 20.5263 74.6203V76.198C20.5263 77.1847 19.8811 77.8248 18.8865 77.8248H15.5561V79.8965H13.9658V72.9922ZM18.2908 76.445C18.7178 76.445 18.936 76.2272 18.936 75.8036V75.0147C18.936 74.5911 18.7178 74.3733 18.2908 74.3733H15.5561V76.445H18.2908Z" fill="#F4EDE2"/>
<path d="M21.3213 74.5222C21.3213 73.5355 21.9678 72.894 22.9611 72.894H26.5405C27.535 72.894 28.1802 73.5355 28.1802 74.5222V78.3734C28.1802 79.3587 27.535 80.0002 26.5405 80.0002H22.9611C21.9678 80.0002 21.3213 79.3587 21.3213 78.3734V74.5222ZM25.9435 78.6177C26.3718 78.6177 26.59 78.3999 26.59 77.9763V74.9219C26.59 74.4969 26.3718 74.2805 25.9435 74.2805H23.5594C23.1324 74.2805 22.9129 74.4969 22.9129 74.9219V77.9763C22.9129 78.3999 23.1324 78.6177 23.5594 78.6177H25.9435Z" fill="#F4EDE2"/>
<path d="M31.457 72.9922H36.4768C37.4713 72.9922 38.1179 73.6336 38.1179 74.6203V75.8036C38.1179 76.5034 37.7899 76.8792 37.4486 77.0851C37.242 77.206 37.0153 77.2896 36.7793 77.3321L38.2705 79.1076V79.8965H36.8275L34.8892 77.4304H33.05V79.8965H31.457V72.9922ZM35.8744 76.0466C36.3014 76.0466 36.5209 75.8288 36.5209 75.4052V75.0068C36.5209 74.5831 36.3014 74.3653 35.8744 74.3653H33.05V76.0426L35.8744 76.0466Z" fill="#F4EDE2"/>
<path d="M39.1133 72.9922H45.0781V73.8806L44.5747 74.368H40.6928V75.7491H43.9737V77.0771H40.7035V78.5074H45.0781V79.8885H39.1133V72.9922Z" fill="#F4EDE2"/>
<path d="M45.1758 79.1076L47.861 72.9922H49.9479L52.6318 79.1076V79.8965H51.1406L50.5944 78.5685H47.2145L46.667 79.8965H45.1758V79.1076ZM50.0469 77.2338L48.9038 74.4224L47.7606 77.2338H50.0469Z" fill="#F4EDE2"/>
<path d="M53.0791 72.9922H54.6694V78.4662H58.9448V79.8965H53.0791V72.9922Z" fill="#F4EDE2"/>
<path d="M61.3789 72.9922H62.9705V75.7053H64.7589L66.6476 72.9922H68.0398V73.789L66.151 76.3029L68.1897 79.1143V79.9031H66.748L64.8097 77.1422H62.9705V79.9031H61.3789V72.9922Z" fill="#F4EDE2"/>
<path d="M68.5361 74.5222C68.5361 73.5355 69.1827 72.894 70.1759 72.894H73.7566C74.7512 72.894 75.3964 73.5355 75.3964 74.5222V78.3734C75.3964 79.3587 74.7512 80.0002 73.7566 80.0002H70.1759C69.1827 80.0002 68.5361 79.3587 68.5361 78.3734V74.5222ZM73.1583 78.6177C73.5867 78.6177 73.8048 78.3999 73.8048 77.9763V74.9219C73.8048 74.4969 73.5867 74.2805 73.1583 74.2805H70.7729C70.3459 74.2805 70.1264 74.4969 70.1264 74.9219V77.9763C70.1264 78.3999 70.3459 78.6177 70.7729 78.6177H73.1583Z" fill="#F4EDE2"/>
<path d="M76.1406 78.5153H80.4643C80.8659 78.5153 81.0118 78.3679 81.0118 77.9735V77.8752C81.0118 77.53 80.8618 77.4011 80.4643 77.3321L77.6813 76.8912C76.6868 76.7332 76.1406 76.2006 76.1406 75.3627V74.6203C76.1406 73.6336 76.7858 72.9922 77.7804 72.9922H82.4026V73.8806L81.906 74.368H78.277C77.8754 74.368 77.7309 74.5167 77.7309 74.9111V75.0094C77.7309 75.3547 77.8795 75.4822 78.277 75.5512L81.0613 75.9948C82.0545 76.1528 82.602 76.6854 82.602 77.5247V78.2643C82.602 79.2497 81.9555 79.8911 80.9609 79.8911H76.142L76.1406 78.5153Z" fill="#F4EDE2"/>
<path d="M83.2471 74.5222C83.2471 73.5355 83.8936 72.894 84.8868 72.894H88.4662C89.4595 72.894 90.106 73.5355 90.106 74.5222V78.3734C90.106 79.3587 89.4595 80.0002 88.4662 80.0002H84.8868C83.8936 80.0002 83.2471 79.3587 83.2471 78.3734V74.5222ZM87.8692 78.6177C88.2962 78.6177 88.5158 78.3999 88.5158 77.9763V74.9219C88.5158 74.4969 88.2962 74.2805 87.8692 74.2805H85.4839C85.0568 74.2805 84.8373 74.4969 84.8373 74.9219V77.9763C84.8373 78.3999 85.0568 78.6177 85.4839 78.6177H87.8692Z" fill="#F4EDE2"/>
<path d="M90.3555 73.7822V72.9854H91.8467L93.9349 78.3611H94.0339L96.1221 72.9854H97.6133V73.7822L95.0285 79.8909H92.939L90.3555 73.7822Z" fill="#F4EDE2"/>
<path d="M96.9141 79.1076L99.5913 72.9922H101.679L104.363 79.1076V79.8965H102.879L102.333 78.5685H98.9527L98.4053 79.8965H96.9141V79.1076ZM101.785 77.2338L100.642 74.4224L99.4989 77.2338H101.785Z" fill="#F4EDE2"/>
<path d="M106.552 79.3043L110.28 76.6483C110.776 76.3136 111.124 75.9392 111.124 75.2181V74.6205C111.124 73.9565 110.796 73.6337 110.131 73.6337H106.854L106.655 73.4385V72.9937H110.185C111.139 72.9937 111.775 73.6258 111.775 74.5726V75.3123C111.775 76.2592 111.268 76.712 110.681 77.137L107.748 79.2074V79.2565H111.772V79.8979H106.552V79.3043Z" fill="#F4EDE2"/>
<path d="M112.919 74.4717C112.919 73.5262 113.555 72.894 114.509 72.894H117.044C117.998 72.894 118.635 73.5262 118.635 74.4717V78.4172C118.635 79.3641 117.998 79.9949 117.044 79.9949H114.509C113.555 79.9949 112.919 79.3641 112.919 78.4172V74.4717ZM116.994 79.3534C117.663 79.3534 117.988 79.0281 117.988 78.3681V74.5169C117.988 73.8529 117.66 73.5302 116.994 73.5302H114.559C113.889 73.5302 113.564 73.8555 113.564 74.5169V78.3681C113.564 79.0321 113.892 79.3534 114.559 79.3534H116.994Z" fill="#F4EDE2"/>
<path d="M119.23 79.3043L122.958 76.6483C123.454 76.3136 123.802 75.9392 123.802 75.2181V74.6205C123.802 73.9565 123.475 73.6337 122.809 73.6337H119.528L119.329 73.4385V72.9937H122.859C123.813 72.9937 124.449 73.6258 124.449 74.5726V75.3123C124.449 76.2592 123.942 76.712 123.355 77.137L120.423 79.2074V79.2565H124.449V79.8979H119.229L119.23 79.3043Z" fill="#F4EDE2"/>
<path d="M125.591 79.255H129.121C129.757 79.255 130.114 78.9098 130.114 78.2697V77.3321C130.114 76.6681 129.786 76.3454 129.121 76.3454H125.64V72.9922H130.561V73.4384L130.362 73.6349H126.287V75.7066H129.174C130.129 75.7066 130.764 76.3374 130.764 77.2843V78.3201C130.764 79.267 130.129 79.8978 129.174 79.8978H125.591V79.255Z" fill="#F4EDE2"/>
<path d="M49.7461 47.8996L33.3965 31.6794L65.33 0L97.2621 31.6794L80.9313 47.881L65.5575 32.4855L49.7461 47.8996ZM37.0616 31.6794L49.7621 44.2795L65.5816 28.8574L80.9433 44.233L93.5971 31.6794L65.33 3.63606L37.0616 31.6794Z" fill="#F4EDE2"/>
<path d="M65.1426 63.3599L52.418 50.7293L65.5161 37.7349L78.2421 50.3588L65.1426 63.3599ZM56.0871 50.7293L65.148 59.7186L74.5824 50.3588L65.5215 41.3696L56.0871 50.7293Z" fill="#F4EDE2"/>
</svg>
