<svg width="29" height="24" viewBox="0 0 29 24" fill="none" xmlns="http://www.w3.org/2000/svg">
<path fill-rule="evenodd" clip-rule="evenodd" d="M1.61111 0.578125C0.721327 0.578125 0 1.31367 0 2.22098C0 3.1283 0.721327 3.86384 1.61111 3.86384H27.3889C28.2787 3.86384 29 3.1283 29 2.22098C29 1.31367 28.2787 0.578125 27.3889 0.578125H1.61111ZM6.44444 12.0781C6.44444 11.1708 7.16577 10.4353 8.05556 10.4353H27.3889C28.2787 10.4353 29 11.1708 29 12.0781C29 12.9855 28.2787 13.721 27.3889 13.721H8.05556C7.16577 13.721 6.44444 12.9855 6.44444 12.0781ZM16.1111 21.9353C16.1111 21.0279 16.8324 20.2924 17.7222 20.2924H27.3889C28.2787 20.2924 29 21.0279 29 21.9353C29 22.8426 28.2787 23.5781 27.3889 23.5781H17.7222C16.8324 23.5781 16.1111 22.8426 16.1111 21.9353Z" fill="#F4EDE2"/>
</svg>
