<svg width="26" height="26" viewBox="0 0 26 26" fill="none" xmlns="http://www.w3.org/2000/svg">
<path fill-rule="evenodd" clip-rule="evenodd" d="M0.54394 0.54394C1.26921 -0.181313 2.44508 -0.181313 3.17035 0.54394L13 10.3736L22.8297 0.54394C23.5549 -0.181313 24.7309 -0.181313 25.4561 0.54394C26.1813 1.26921 26.1813 2.44508 25.4561 3.17035L15.6264 13L25.4561 22.8297C26.1813 23.5549 26.1813 24.7309 25.4561 25.4561C24.7309 26.1813 23.5549 26.1813 22.8297 25.4561L13 15.6264L3.17035 25.4561C2.44508 26.1813 1.26921 26.1813 0.54394 25.4561C-0.181313 24.7309 -0.181313 23.5549 0.54394 22.8297L10.3736 13L0.54394 3.17035C-0.181313 2.44508 -0.181313 1.26921 0.54394 0.54394Z" fill="#F4EDE2"/>
</svg>
